<svg xmlns="http://www.w3.org/2000/svg" version="1.1" viewBox="-5.0 -10.0 110.0 135.0">
 <path d="m93.898 90.84c0.22266 1.0312-0.30469 2.082-1.2656 2.5234-0.36719 0.16797-9.3984 4.1367-42.633 4.1367-33.23 0-42.266-3.9688-42.633-4.1328-0.96094-0.44141-1.4844-1.4922-1.2656-2.5234 8.9922-41.766 23.922-57.512 28.191-61.293l-3.918-20.27c-0.0625-0.32812-0.054688-0.66797 0.03125-0.98828 0.058594-0.23828 1.5898-5.793 9.9297-5.793 4.6953 0 7.8633 1.7734 9.6641 3.2148 1.8008-1.4414 4.9727-3.2148 9.6641-3.2148 8.3359 0 9.8672 5.5547 9.9297 5.793 0.085938 0.32031 0.09375 0.66016 0.03125 0.98828l-3.9219 20.266c4.2734 3.7812 19.199 19.527 28.195 61.293zm-43.898 2.1523c24.293 0 35.211-2.1523 39.055-3.1875-7.5117-33.441-18.953-49.043-24.262-54.785 2.668 5.0586 6.1523 12.984 7.7188 22.172 0.21094 1.2305-0.61719 2.3906-1.8438 2.6016-0.12891 0.023437-0.25781 0.03125-0.38281 0.03125-1.0781 0-2.0312-0.77344-2.2188-1.8789-2.4805-14.562-10.359-26.109-10.438-26.223-0.70703-1.0273-0.45312-2.4258 0.57031-3.1328 0.97656-0.67969 2.2852-0.46875 3.0195 0.43359l3.8477-19.91c-0.40625-0.65234-1.7305-2.1016-5.4023-2.1016-5.3594 0-7.7617 3.0625-7.8594 3.1953-0.43359 0.5625-1.1367 0.85938-1.8281 0.89453-0.71094-0.011718-1.3867-0.34375-1.8047-0.91797-0.085937-0.10547-2.4805-3.1758-7.8438-3.1758-3.6758 0-4.9961 1.4414-5.4023 2.0938l3.8477 19.918c0.73437-0.90234 2.0469-1.1094 3.0195-0.4375 1.0234 0.71094 1.2773 2.1094 0.57422 3.1367-0.082032 0.11328-7.9648 11.66-10.441 26.227-0.1875 1.0977-1.1406 1.8711-2.2188 1.8711-0.12891 0-0.25391-0.011718-0.38281-0.03125-1.2305-0.20703-2.0547-1.3711-1.8438-2.6016 1.5664-9.1914 5.0547-17.117 7.7188-22.176-5.293 5.7344-16.746 21.336-24.258 54.789 3.8281 1.0391 14.746 3.1953 39.059 3.1953z"/>
</svg>