<svg xmlns="http://www.w3.org/2000/svg" version="1.1" viewBox="-5.0 -10.0 110.0 135.0">
 <path d="m73.945 4.8398c0.42188 0.44922 0.63281 1.0547 0.58984 1.6641l-3.2695 44.367c-0.082031 1.1523-1.0469 2.0508-2.207 2.0508h-4.7734l-1.8398 42.465c-0.050781 1.1836-1.0273 2.1172-2.2109 2.1172l-20.469-0.003906c-1.1836 0-2.1562-0.93359-2.2109-2.1172l-1.8359-42.461h-4.7773c-1.1562 0-2.1211-0.89453-2.2031-2.0508l-3.2734-44.367c-0.046875-0.60938 0.16406-1.2148 0.58594-1.6641 0.42188-0.44922 1.0078-0.70703 1.6211-0.70703h13.957c0.87109 0 1.6641 0.51172 2.0195 1.3086l6.3516 14.219 6.3516-14.223c0.35938-0.79688 1.1484-1.3086 2.0195-1.3086h13.957c0.61328 0.003906 1.2031 0.25781 1.6172 0.71094zm-6.9414 43.652 2.9414-39.941h-4.3984l0.92969 2.0859c0.39453 0.89453 0.16016 1.9453-0.58203 2.5781l-2.8281 2.4297 0.53125 2.3633c0.066406 0.3125 0.070313 0.63672 0.003906 0.94922-0.10156 0.46875-1.1484 4.7539-6.9258 10.445-0.43359 0.42578-0.99609 0.63672-1.5547 0.63672-0.57031 0-1.1406-0.22266-1.5742-0.66016-0.85547-0.87109-0.84375-2.2695 0.023437-3.1328 3.8711-3.8164 5.1992-6.8008 5.5781-7.8438l-0.69531-3.0898c-0.17969-0.80078 0.097656-1.6328 0.71875-2.1641l2.5898-2.2188-1.0625-2.3828h-0.89844l-7.7812 17.434c-0.35938 0.79688-1.1484 1.3125-2.0195 1.3125s-1.6641-0.51562-2.0195-1.3125l-7.7891-17.426h-0.89453l-1.0625 2.3828 2.5898 2.2188c0.62109 0.53516 0.89844 1.3633 0.71875 2.1641l-0.69531 3.0938c0.37109 1.0195 1.6953 4.0117 5.582 7.8398 0.87109 0.85938 0.87891 2.2617 0.023437 3.1328-0.43359 0.4375-1.0039 0.66016-1.5742 0.66016-0.5625 0-1.1211-0.21094-1.5547-0.63672-5.7734-5.6914-6.8242-9.9766-6.9258-10.445-0.066407-0.3125-0.066407-0.63672 0.003906-0.94922l0.53125-2.3594-2.8281-2.4297c-0.74609-0.63672-0.98047-1.6836-0.58203-2.5781l0.92969-2.0859h-4.3984l2.9414 39.941h4.8398c1.1875 0 2.1562 0.93359 2.2148 2.1172l1.8398 42.465h16.227l1.8398-42.465c0.050781-1.1836 1.0273-2.1172 2.2148-2.1172l4.832-0.007812zm-13.16-45.844c-0.34375-0.19922-0.76172-0.19922-1.0977-0.003907l-2.7422 1.5859-2.75-1.582c-0.32812-0.19141-0.74609-0.19922-1.1016 0-0.33594 0.19531-0.54297 0.55859-0.54297 0.94531v3.3047c0 0.38672 0.20312 0.75391 0.55078 0.95703 0.16406 0.09375 0.35156 0.14062 0.54297 0.14062 0.19531 0 0.38281-0.046875 0.55078-0.14453l2.7461-1.5898 2.7461 1.5898c0.16406 0.097657 0.35938 0.14844 0.55078 0.14844s0.38281-0.050781 0.54688-0.14844c0.33594-0.19531 0.54688-0.55859 0.54688-0.95312v-3.3047c0-0.39844-0.21484-0.75781-0.54688-0.94531zm-5.4062 29.285c-0.41797 0.41797-0.65234 0.98047-0.65234 1.5703 0 0.57422 0.23438 1.1484 0.65234 1.5586 0.41016 0.42188 0.97656 0.65234 1.5625 0.65234s1.1523-0.23047 1.5625-0.65234c0.41797-0.41016 0.65234-0.98047 0.65234-1.5586 0-0.58984-0.23438-1.1523-0.65234-1.5703-0.82031-0.81641-2.3047-0.81641-3.125 0zm0 8.793c-0.41797 0.41016-0.65234 0.97656-0.65234 1.5625 0 0.58594 0.23438 1.1523 0.65234 1.5625 0.41016 0.41406 0.97656 0.64844 1.5625 0.64844s1.1523-0.23438 1.5625-0.65234c0.41797-0.41016 0.65234-0.97656 0.65234-1.5625 0-0.58594-0.23438-1.1523-0.65234-1.5625-0.82031-0.82422-2.3047-0.82422-3.125 0.003906z"/>
</svg>